<svg width="24" height="28" viewBox="0 0 24 28" fill="none" xmlns="http://www.w3.org/2000/svg">
<path d="M5.48764 8.8421V6.63158C5.48764 2.94737 8.37588 0 11.9862 0C15.5965 0 18.4847 2.94737 18.4847 6.63158V8.8421H22.095C22.5282 8.8421 22.817 9.13684 22.817 9.57895C22.817 9.57895 23.5391 19.0105 23.9723 24.0211C24.1167 25.0526 23.6835 26.0842 22.9615 26.8211C22.3838 27.5579 21.3729 28 20.362 28H3.61029C2.59941 28 1.58853 27.5579 1.01088 26.8211C0.288824 26.0842 0 25.0526 0 24.0211C0.433235 18.8632 1.15529 9.57895 1.15529 9.57895C1.15529 9.13684 1.44412 8.8421 1.87735 8.8421H5.48764ZM18.4847 10.3158V12.6737C18.9179 12.9684 19.2067 13.4105 19.2067 14C19.2067 14.8842 18.6291 15.4737 17.7626 15.4737C16.8962 15.4737 16.3185 14.8842 16.3185 14C16.3185 13.4105 16.6073 12.9684 17.0406 12.6737V10.3158H6.93176V12.6737C7.36499 12.9684 7.65382 13.4105 7.65382 14C7.65382 14.8842 7.07617 15.4737 6.2097 15.4737C5.34323 15.4737 4.76558 14.8842 4.76558 14C4.76558 13.4105 5.05441 12.9684 5.48764 12.6737V10.3158H2.59941L1.44412 24.1684C1.44412 24.7579 1.58853 25.3474 2.02176 25.7895C2.455 26.2316 3.03264 26.5263 3.61029 26.5263H20.5065C21.0841 26.5263 21.6617 26.2316 22.095 25.7895C22.5282 25.3474 22.6726 24.7579 22.6726 24.1684L21.3729 10.3158H18.4847ZM11.2641 17.6842V15.4737C11.2641 15.0316 11.5529 14.7368 11.9862 14.7368C12.4194 14.7368 12.7082 15.0316 12.7082 15.4737V17.6842H14.8744C15.3076 17.6842 15.5965 17.9789 15.5965 18.4211C15.5965 18.8632 15.3076 19.1579 14.8744 19.1579H12.7082V21.3684C12.7082 21.8105 12.4194 22.1053 11.9862 22.1053C11.5529 22.1053 11.2641 21.8105 11.2641 21.3684V19.1579H9.09793C8.6647 19.1579 8.37588 18.8632 8.37588 18.4211C8.37588 17.9789 8.6647 17.6842 9.09793 17.6842H11.2641ZM17.0406 8.8421V6.63158C17.0406 3.83158 14.73 1.47368 11.9862 1.47368C9.24234 1.47368 6.93176 3.83158 6.93176 6.63158V8.8421H17.0406Z" fill="#434D1D" fill-opacity="0.92"/>
</svg>
